<svg version="1.2" baseProfile="tiny-ps" xmlns="http://www.w3.org/2000/svg" viewBox="0 0 3000 3000" width="800" height="800">
	<title>528-ai</title>
	<style>
		tspan { white-space:pre }
		.shp0 { fill: #ffffff } 
		.shp1 { fill: #d4e1f4 } 
		.shp2 { fill: #b9cbdf } 
		.shp3 { fill: #f8b133 } 
		.shp4 { fill: #f29100 } 
		.shp5 { fill: #162843 } 
	</style>
	<g id="Background" style="display: none">
		<path id="&lt;Path&gt;" class="shp0" d="M3000 3000L0 3000L0 0L3000 0L3000 3000Z" />
	</g>
	<g id="Logo">
		<path id="ZERO TO 100 " fill="#162842" aria-label="ZERO TO 100"  d="M950 2618L821.09 2618L824.98 2589.85L896.59 2499.05L839.71 2499.05L845.44 2459.1L966.78 2459.1L962.48 2488.15L892.09 2578.05L955.73 2578.05L950 2618ZM1088.93 2618L968 2618L990.72 2459.1L1107.35 2459.1L1101.62 2498.82L1030.82 2498.82L1027.75 2520.39L1085.25 2520.39L1080.75 2551.94L1023.25 2551.94L1019.36 2578.27L1094.66 2578.27L1088.93 2618ZM1153.18 2618L1106.94 2618L1129.65 2459.1L1202.49 2459.1Q1227.25 2459.1 1241.57 2469.99Q1255.9 2480.89 1255.9 2502.68Q1255.9 2520.84 1247.3 2536.05Q1238.71 2551.26 1222.34 2559.66L1243.01 2618L1191.44 2618L1176.1 2569.65L1159.93 2569.65L1153.18 2618ZM1170.37 2497.69L1165.05 2535.37L1185.71 2535.37Q1196.15 2535.37 1202.08 2528.79Q1208.22 2522.2 1208.22 2512.22Q1208.22 2497.69 1191.03 2497.69L1170.37 2497.69ZM1265.31 2531.28Q1267.97 2517.89 1274.52 2504.04Q1281.06 2490.2 1290.48 2479.75Q1300.09 2469.09 1315.23 2462.5Q1330.38 2455.69 1348.99 2455.69Q1377.85 2455.69 1394.62 2472.04Q1411.61 2488.38 1411.61 2518.8Q1411.61 2532.19 1408.95 2545.81Q1406.29 2559.21 1399.74 2573.05Q1393.19 2586.9 1383.57 2597.57Q1373.96 2608.01 1358.82 2614.82Q1343.88 2621.41 1325.26 2621.41Q1296.41 2621.41 1279.43 2605.06Q1262.65 2588.49 1262.65 2557.84Q1262.65 2544.68 1265.31 2531.28ZM1309.91 2556.03Q1309.91 2580.54 1331.19 2580.54Q1338.97 2580.54 1345.52 2573.96Q1352.27 2567.15 1356.16 2557.62Q1360.25 2547.86 1362.29 2538.09Q1364.55 2528.33 1364.55 2520.84Q1364.55 2496.55 1343.27 2496.55Q1335.7 2496.55 1329.56 2501.32Q1323.42 2506.09 1319.74 2513.12Q1316.26 2519.93 1313.8 2528.56Q1311.55 2536.96 1310.73 2543.77Q1309.91 2550.58 1309.91 2556.03ZM1507.16 2499.05L1468.28 2499.05L1474.01 2459.1L1598.21 2459.1L1592.28 2499.05L1553.4 2499.05L1536.42 2618L1490.18 2618L1507.16 2499.05ZM1596.17 2531.28Q1598.83 2517.89 1605.38 2504.04Q1611.92 2490.2 1621.34 2479.75Q1630.95 2469.09 1646.09 2462.5Q1661.24 2455.69 1679.86 2455.69Q1708.71 2455.69 1725.48 2472.04Q1742.47 2488.38 1742.47 2518.8Q1742.47 2532.19 1739.81 2545.81Q1737.15 2559.21 1730.6 2573.05Q1724.05 2586.9 1714.44 2597.57Q1704.82 2608.01 1689.68 2614.82Q1674.74 2621.41 1656.12 2621.41Q1627.27 2621.41 1610.29 2605.06Q1593.51 2588.49 1593.51 2557.84Q1593.51 2544.68 1596.17 2531.28ZM1640.77 2556.03Q1640.77 2580.54 1662.05 2580.54Q1669.83 2580.54 1676.38 2573.96Q1683.13 2567.15 1687.02 2557.62Q1691.11 2547.86 1693.16 2538.09Q1695.41 2528.33 1695.41 2520.84Q1695.41 2496.55 1674.13 2496.55Q1666.56 2496.55 1660.42 2501.32Q1654.28 2506.09 1650.6 2513.12Q1647.12 2519.93 1644.66 2528.56Q1642.41 2536.96 1641.59 2543.77Q1640.77 2550.58 1640.77 2556.03ZM1858.07 2618L1812.65 2618L1829.43 2500.64L1798.12 2500.64L1804.06 2459.1L1880.79 2459.1L1858.07 2618ZM1887.74 2533.33Q1889.99 2520.16 1895.93 2506.09Q1902.07 2491.79 1911.07 2480.89Q1920.28 2469.77 1935.21 2462.73Q1950.15 2455.69 1968.97 2455.69Q1997.83 2455.69 2013.38 2471.81Q2029.13 2487.7 2029.13 2517.44Q2029.13 2530.38 2026.68 2543.77Q2024.43 2557.16 2018.29 2571.46Q2012.15 2585.54 2002.94 2596.43Q1993.94 2607.33 1978.8 2614.37Q1963.86 2621.41 1945.24 2621.41Q1916.59 2621.41 1900.84 2605.51Q1885.29 2589.4 1885.29 2559.66Q1885.29 2546.72 1887.74 2533.33ZM1931.33 2557.16Q1931.33 2569.42 1936.65 2575.55Q1941.97 2581.45 1951.17 2581.45Q1959.56 2581.45 1966.11 2574.19Q1972.86 2566.92 1976.14 2556.25Q1979.61 2545.59 1981.25 2536.05Q1982.89 2526.52 1982.89 2519.48Q1982.89 2507.22 1977.57 2501.55Q1972.45 2495.65 1963.45 2495.65Q1954.86 2495.65 1948.1 2502.91Q1941.56 2509.95 1938.08 2520.62Q1934.8 2531.06 1932.96 2540.59Q1931.33 2550.13 1931.33 2557.16ZM2038.34 2533.33Q2040.59 2520.16 2046.52 2506.09Q2052.66 2491.79 2061.66 2480.89Q2070.87 2469.77 2085.81 2462.73Q2100.75 2455.69 2119.57 2455.69Q2148.42 2455.69 2163.97 2471.81Q2179.73 2487.7 2179.73 2517.44Q2179.73 2530.38 2177.27 2543.77Q2175.02 2557.16 2168.88 2571.46Q2162.74 2585.54 2153.54 2596.43Q2144.53 2607.33 2129.39 2614.37Q2114.46 2621.41 2095.84 2621.41Q2067.19 2621.41 2051.43 2605.51Q2035.88 2589.4 2035.88 2559.66Q2035.88 2546.72 2038.34 2533.33ZM2081.92 2557.16Q2081.92 2569.42 2087.24 2575.55Q2092.56 2581.45 2101.77 2581.45Q2110.16 2581.45 2116.71 2574.19Q2123.46 2566.92 2126.73 2556.25Q2130.21 2545.59 2131.85 2536.05Q2133.48 2526.52 2133.48 2519.48Q2133.48 2507.22 2128.16 2501.55Q2123.05 2495.65 2114.05 2495.65Q2105.45 2495.65 2098.7 2502.91Q2092.15 2509.95 2088.67 2520.62Q2085.4 2531.06 2083.56 2540.59Q2081.92 2550.13 2081.92 2557.16Z" />
		<g id="&lt;Group&gt;">
			<path id="&lt;Path&gt;" class="shp1" d="M1223.91 975.86C1223.91 630.4 1418.17 331.47 1500.04 220.85C1581.93 331.51 1776.18 630.42 1776.18 975.86C1776.18 1198.48 1695.26 1400.62 1621.98 1537.97L1378.09 1537.97C1304.83 1400.63 1223.91 1198.48 1223.91 975.86Z" />
			<path id="&lt;Path&gt;" class="shp2" d="M1776.18 975.86C1776.18 630.42 1581.93 331.51 1500.04 220.85L1500.04 1537.97L1621.98 1537.97C1695.26 1400.62 1776.18 1198.48 1776.18 975.86Z" />
			<path id="&lt;Path&gt;" class="shp2" d="M1935.85 1309.4L1935.85 1549.33L1802.17 1361.6C1827.52 1288.16 1848.49 1207.77 1860.31 1122.72L1896.41 1173.42C1917.43 1202.91 1935.85 1266.46 1935.85 1309.4Z" />
			<path id="&lt;Path&gt;" class="shp1" d="M1064.24 1549.33L1064.24 1309.4C1064.24 1266.46 1082.66 1202.91 1103.65 1173.42L1139.77 1122.72C1151.59 1207.77 1172.57 1288.16 1197.92 1361.6L1064.24 1549.33Z" />
			<path id="&lt;Path&gt;" class="shp3" d="M943.95 2298.9C965.4 2207.36 1047.71 2138.98 1145.69 2138.98C1160.38 2138.98 1175.23 2140.56 1189.84 2143.74C1207.14 2147.48 1225.1 2141.22 1236.33 2127.54C1247.59 2113.87 1250.23 2095.04 1243.2 2078.75C1235.31 2060.56 1231.3 2041.17 1231.3 2021.21C1231.3 1941.69 1295.57 1876.91 1374.89 1876.08L1374.89 1969.99C1374.89 1996.06 1396.05 2017.24 1422.16 2017.24C1448.25 2017.24 1469.42 1996.06 1469.42 1969.99L1469.42 1632.5L1530.66 1632.5L1530.66 1969.99C1530.66 1996.06 1551.83 2017.24 1577.93 2017.24C1604.03 2017.24 1625.19 1996.06 1625.19 1969.99L1625.19 1876.08C1704.5 1876.91 1768.78 1941.69 1768.78 2021.21C1768.78 2041.17 1764.77 2060.56 1756.89 2078.75C1749.86 2095.04 1752.5 2113.87 1763.73 2127.54C1774.98 2141.22 1792.95 2147.48 1810.24 2143.74C1824.86 2140.59 1839.71 2138.98 1854.38 2138.98C1952.36 2138.98 2034.68 2207.36 2056.12 2298.9L943.95 2298.9Z" />
			<path id="&lt;Path&gt;" class="shp4" d="M1854.38 2138.98C1839.71 2138.98 1824.86 2140.59 1810.24 2143.74C1792.95 2147.48 1774.98 2141.22 1763.73 2127.54C1752.5 2113.87 1749.86 2095.04 1756.89 2078.75C1764.77 2060.56 1768.78 2041.17 1768.78 2021.21C1768.78 1941.69 1704.5 1876.91 1625.19 1876.08L1625.19 1969.99C1625.19 1996.06 1604.03 2017.24 1577.93 2017.24C1551.83 2017.24 1530.66 1996.06 1530.66 1969.99L1530.66 1632.5L1500.04 1632.5L1500.04 2298.9L2056.12 2298.9C2034.68 2207.36 1952.36 2138.98 1854.38 2138.98Z" />
			<path id="&lt;Compound Path&gt;" fill-rule="evenodd" class="shp5" d="M2156.08 2346.16C2156.08 2372.24 2134.92 2393.41 2108.82 2393.41L891.25 2393.41C865.16 2393.41 844 2372.24 844 2346.16C844 2182.4 975.14 2048.7 1137.91 2044.54C1137.15 2036.84 1136.79 2029.05 1136.79 2021.21C1136.79 1889.55 1243.46 1782.39 1374.89 1781.56L1374.89 1632.5L1350.03 1632.5C1332.89 1632.5 1317.1 1623.21 1308.74 1608.23C1285.88 1567.15 1261.78 1519.66 1238.93 1466.97L1103.65 1656.89C1080.12 1689.96 1056.03 1698.22 1037.86 1698.22C1030.57 1698.22 1024.23 1696.88 1019.26 1695.3C996.64 1688.06 969.72 1665.93 969.72 1601.43L969.72 1309.4C969.72 1247.25 994.75 1163.43 1026.68 1118.58L1129.41 974.33C1129.77 727.88 1220.54 507.26 1296.71 365.46C1379.11 212.09 1460.92 117.24 1464.37 113.28C1473.34 102.93 1486.35 97 1500.04 97C1513.74 97 1526.75 102.93 1535.71 113.28C1539.15 117.24 1620.98 212.09 1703.38 365.46C1779.54 507.26 1870.3 727.88 1870.67 974.33L1973.4 1118.58C2005.34 1163.43 2030.37 1247.25 2030.37 1309.4L2030.37 1601.43C2030.37 1665.93 2003.43 1688.06 1980.82 1695.3C1975.85 1696.88 1969.52 1698.22 1962.23 1698.22C1944.06 1698.22 1919.98 1689.96 1896.42 1656.89L1761.15 1466.97C1738.3 1519.64 1714.21 1567.15 1691.35 1608.23C1682.99 1623.21 1667.2 1632.5 1650.06 1632.5L1625.19 1632.5L1625.19 1781.56C1756.62 1782.39 1863.3 1889.55 1863.3 2021.21C1863.3 2029.05 1862.93 2036.84 1862.18 2044.54C2024.95 2048.7 2156.08 2182.4 2156.08 2346.16ZM1802.17 1361.6L1935.85 1549.33L1935.85 1309.4C1935.85 1266.46 1917.43 1202.91 1896.41 1173.42L1860.31 1122.72C1848.49 1207.77 1827.52 1288.16 1802.17 1361.6ZM1197.92 1361.6C1172.57 1288.16 1151.59 1207.77 1139.77 1122.72L1103.65 1173.42C1082.66 1202.91 1064.24 1266.46 1064.24 1309.4L1064.24 1549.33L1197.92 1361.6ZM1378.09 1537.97L1621.98 1537.97C1695.26 1400.62 1776.18 1198.48 1776.18 975.86C1776.18 630.42 1581.93 331.51 1500.04 220.85C1418.17 331.47 1223.91 630.4 1223.91 975.86C1223.91 1198.48 1304.83 1400.63 1378.09 1537.97ZM2056.12 2298.9C2034.68 2207.36 1952.36 2138.98 1854.38 2138.98C1839.71 2138.98 1824.86 2140.59 1810.24 2143.74C1792.95 2147.48 1774.98 2141.22 1763.73 2127.54C1752.5 2113.87 1749.86 2095.04 1756.89 2078.75C1764.77 2060.56 1768.78 2041.17 1768.78 2021.21C1768.78 1941.69 1704.5 1876.91 1625.19 1876.08L1625.19 1969.99C1625.19 1996.06 1604.03 2017.24 1577.93 2017.24C1551.83 2017.24 1530.66 1996.06 1530.66 1969.99L1530.66 1632.5L1469.42 1632.5L1469.42 1969.99C1469.42 1996.06 1448.25 2017.24 1422.16 2017.24C1396.05 2017.24 1374.89 1996.06 1374.89 1969.99L1374.89 1876.08C1295.57 1876.91 1231.3 1941.69 1231.3 2021.21C1231.3 2041.17 1235.31 2060.56 1243.2 2078.75C1250.23 2095.04 1247.59 2113.87 1236.33 2127.54C1225.1 2141.22 1207.14 2147.48 1189.84 2143.74C1175.23 2140.56 1160.38 2138.98 1145.69 2138.98C1047.71 2138.98 965.4 2207.36 943.95 2298.9L2056.12 2298.9Z" />
			<g id="&lt;Group&gt;">
				<path id="&lt;Compound Path&gt;" fill-rule="evenodd" class="shp5" d="M1500.05 1022.03C1421.4 1022.03 1357.43 958.06 1357.43 879.42C1357.43 800.78 1421.4 736.8 1500.05 736.8C1578.7 736.8 1642.67 800.78 1642.67 879.42C1642.67 958.06 1578.7 1022.03 1500.05 1022.03ZM1500.05 833.59C1474.79 833.59 1454.23 854.16 1454.23 879.42C1454.23 904.67 1474.79 925.25 1500.05 925.25C1525.32 925.25 1545.87 904.67 1545.87 879.42C1545.87 854.16 1525.32 833.59 1500.05 833.59Z" />
			</g>
		</g>
	</g>
</svg>